<?xml version="1.0" encoding="UTF-8" standalone="no"?>
<svg width="269px" height="83px" viewBox="0 0 269 83" version="1.1" xmlns="http://www.w3.org/2000/svg" xmlns:xlink="http://www.w3.org/1999/xlink" xmlns:sketch="http://www.bohemiancoding.com/sketch/ns">
    <!-- Generator: sketchtool 3.4 (381) - http://www.bohemiancoding.com/sketch -->
    <title>logo</title>
    <desc>Created with sketchtool.</desc>
    <defs>
        <path id="path-1" d="M0,41.2889697 C0,18.5047979 18.6161148,0.0344763248 41.5802546,0.0344763248 C64.5442703,0.0344763248 83.1603851,18.5047979 83.1603851,41.2889697 C83.1603851,64.0732646 64.5442703,82.5435862 41.5802546,82.5435862 C18.6161148,82.5435862 0,64.0732646 0,41.2889697"></path>
    </defs>
    <g id="Page-1" stroke="none" stroke-width="1" fill="none" fill-rule="evenodd" sketch:type="MSPage">
        <g id="Michelada-Desktop" sketch:type="MSArtboardGroup" transform="translate(-135.000000, -70.000000)">
            <g id="Header" sketch:type="MSLayerGroup" transform="translate(135.000000, 70.000000)">
                <g id="logo">
                    <path d="M103.400885,46.2004956 L103.400885,38.3724269 C103.400885,36.4355852 104.261704,35.4402637 105.875739,35.4402637 C107.462873,35.4402637 107.893282,36.3548834 107.893282,38.3724269 L107.893282,46.2004956 L112.062872,46.2004956 L112.062872,38.3724269 C112.062872,36.4355852 112.92369,35.4402637 114.537725,35.4402637 C116.124859,35.4402637 116.555269,36.3548834 116.555269,38.3724269 L116.555269,46.2004956 L120.697958,46.2004956 L120.697958,36.6776904 C120.697958,33.3151179 118.868719,31.4858785 115.613748,31.4858785 C113.81141,31.4858785 112.654685,32.2121942 111.148252,33.7993284 C110.206732,32.2390948 108.888604,31.4858785 107.140066,31.4858785 C105.391528,31.4858785 104.1003,32.2121942 103.212581,33.6917261 L103.212581,31.7548843 L99.3657984,31.7548843 L99.3657984,46.2004956 L103.400885,46.2004956 Z M127.853512,30.4367559 L127.853512,27.0741835 L123.630121,27.0741835 L123.630121,30.4367559 L127.853512,30.4367559 Z M127.853512,46.2004956 L127.853512,31.7548843 L123.630121,31.7548843 L123.630121,46.2004956 L127.853512,46.2004956 Z M140.496785,41.0355843 C139.79737,41.9771046 138.855849,42.461315 137.699124,42.461315 C135.65468,42.461315 134.25585,41.0893855 134.25585,38.8835379 C134.25585,36.892895 135.65468,35.4402637 137.564621,35.4402637 C138.963452,35.4402637 139.958773,35.9782753 140.550586,36.9735968 L145.042983,36.9735968 C143.886258,33.3151179 141.2231,31.3244751 137.591522,31.3244751 C135.520177,31.3244751 133.744739,32.0776913 132.265207,33.5841237 C130.839477,35.036755 130.05936,36.8659945 130.05936,38.8835379 C130.05936,40.9010814 130.785675,42.784122 132.184506,44.2636539 C133.664037,45.8238875 135.439476,46.5771037 137.645323,46.5771037 C141.169299,46.5771037 143.966959,44.5057591 145.042983,41.0355843 L140.496785,41.0355843 Z M151.310818,46.2004956 L151.310818,38.3724269 C151.310818,36.4355852 152.198537,35.4402637 153.866373,35.4402637 C155.507308,35.4402637 155.937717,36.3548834 155.937717,38.3724269 L155.937717,46.2004956 L160.188009,46.2004956 L160.188009,36.6776904 C160.188009,33.3689191 158.251167,31.4858785 155.265203,31.4858785 C153.435963,31.4858785 152.090934,32.158393 151.203215,33.5572232 L151.203215,27.0741835 L147.141228,27.0741835 L147.141228,46.2004956 L151.310818,46.2004956 Z M166.375142,37.4578072 C166.671049,36.0858777 167.935376,35.1712579 169.710814,35.1712579 C171.405551,35.1712579 172.616077,35.9782753 173.127188,37.4578072 L166.375142,37.4578072 Z M172.051165,42.0040052 C171.405551,42.5689173 170.706136,42.8110226 169.845317,42.8110226 C167.989177,42.8110226 166.886253,42.0040052 166.509645,40.4706721 L177.40438,40.4706721 L177.40438,40.0133623 C177.40438,34.6332464 174.257012,31.3244751 169.657013,31.3244751 C167.693271,31.3244751 165.783329,32.1314924 164.330698,33.5841237 C162.904967,35.0098545 162.124851,36.8659945 162.124851,38.8835379 C162.124851,40.927982 162.851166,42.7572214 164.249996,44.2367533 C165.729528,45.7969869 167.504967,46.5502031 169.710814,46.5502031 C172.938884,46.5502031 175.333035,45.0168701 176.731865,42.0040052 L172.051165,42.0040052 Z M179.556426,27.0741835 L179.556426,46.2004956 L183.779817,46.2004956 L183.779817,27.0741835 L179.556426,27.0741835 Z M197.310809,46.2004956 L201.426598,46.2004956 L201.426598,31.7548843 L197.176306,31.7548843 L197.176306,33.3689191 C196.207885,32.1314924 194.862856,31.5396797 193.114318,31.5396797 C191.285079,31.5396797 189.644144,32.2121942 188.299115,33.5303226 C186.792682,34.9829539 185.985665,36.8390939 185.985665,38.9104385 C185.985665,41.1700872 186.846483,43.1069289 188.514319,44.5864608 C189.778647,45.7162852 191.285079,46.2811973 193.033617,46.2811973 C194.755254,46.2811973 196.046482,45.8238875 197.310809,44.5864608 L197.310809,46.2004956 Z M190.235956,38.8835379 C190.235956,36.9466962 191.79619,35.3057608 193.813733,35.3057608 C195.804376,35.3057608 197.337709,36.8659945 197.337709,38.9373391 C197.337709,40.927982 195.804376,42.4344144 193.975137,42.4344144 C191.79619,42.4344144 190.235956,40.9010814 190.235956,38.8835379 L190.235956,38.8835379 Z M207.667532,38.8835379 C207.667532,36.9466962 209.227766,35.3057608 211.245309,35.3057608 C213.235952,35.3057608 214.769285,36.8659945 214.769285,38.9373391 C214.769285,40.927982 213.235952,42.4344144 211.406713,42.4344144 C209.227766,42.4344144 207.667532,40.9010814 207.667532,38.8835379 L207.667532,38.8835379 Z M214.742384,46.2004956 L218.858173,46.2004956 L218.858173,27.0741835 L214.607882,27.0741835 L214.607882,33.3689191 C213.639461,32.1314924 212.294432,31.5396797 210.545894,31.5396797 C208.716655,31.5396797 207.075719,32.2121942 205.73069,33.5303226 C204.224258,34.9829539 203.41724,36.8390939 203.41724,38.9104385 C203.41724,41.1700872 204.278059,43.1069289 205.945895,44.5864608 C207.210222,45.7162852 208.716655,46.2811973 210.465192,46.2811973 C212.186829,46.2811973 213.478057,45.8238875 214.742384,44.5864608 L214.742384,46.2004956 Z M232.17396,46.2004956 L236.289749,46.2004956 L236.289749,31.7548843 L232.039457,31.7548843 L232.039457,33.3689191 C231.071036,32.1314924 229.726007,31.5396797 227.97747,31.5396797 C226.14823,31.5396797 224.507295,32.2121942 223.162266,33.5303226 C221.655833,34.9829539 220.848816,36.8390939 220.848816,38.9104385 C220.848816,41.1700872 221.709635,43.1069289 223.377471,44.5864608 C224.641798,45.7162852 226.14823,46.2811973 227.896768,46.2811973 C229.618405,46.2811973 230.909633,45.8238875 232.17396,44.5864608 L232.17396,46.2004956 Z M225.099108,38.8835379 C225.099108,36.9466962 226.659341,35.3057608 228.676885,35.3057608 C230.667528,35.3057608 232.200861,36.8659945 232.200861,38.9373391 C232.200861,40.927982 230.667528,42.4344144 228.838288,42.4344144 C226.659341,42.4344144 225.099108,40.9010814 225.099108,38.8835379 L225.099108,38.8835379 Z M243.902613,46.2004956 L243.902613,41.7888005 L239.544719,41.7888005 L239.544719,46.2004956 L243.902613,46.2004956 Z M251.542377,30.4367559 L251.542377,27.0741835 L247.318986,27.0741835 L247.318986,30.4367559 L251.542377,30.4367559 Z M251.542377,46.2004956 L251.542377,31.7548843 L247.318986,31.7548843 L247.318986,46.2004956 L251.542377,46.2004956 Z M257.944715,38.9911403 C257.944715,37.0004974 259.478048,35.4133632 261.361089,35.4133632 C263.24413,35.4133632 264.777463,37.0004974 264.777463,38.9911403 C264.777463,40.9548826 263.24413,42.5420168 261.361089,42.5420168 C259.504949,42.5420168 257.944715,40.9548826 257.944715,38.9911403 L257.944715,38.9911403 Z M253.748225,38.9373391 C253.748225,40.9548826 254.474541,42.8110226 255.873371,44.2636539 C257.352903,45.8238875 259.128341,46.5771037 261.334188,46.5771037 C263.513135,46.5771037 265.342375,45.7969869 266.821907,44.317455 C268.274538,42.8648237 269.000854,41.0624849 269.000854,38.8835379 C269.000854,36.9197956 268.166936,34.9291527 266.633603,33.4765214 C265.180971,32.1045919 263.378632,31.3782762 261.280387,31.3782762 C259.316645,31.3782762 257.406704,32.1852936 255.954072,33.6379249 C254.528342,35.0636556 253.748225,36.9197956 253.748225,38.9373391 L253.748225,38.9373391 Z" id="michelada.io" fill="#FFFFFF" sketch:type="MSShapeGroup"></path>
                    <g id="Fill-1-Copy-+-Group-5">
                        <path d="M0,41.2544934 C0,18.4703216 18.6161148,0 41.5802546,0 C64.5442703,0 83.1603851,18.4703216 83.1603851,41.2544934 C83.1603851,64.0387883 64.5442703,82.5091099 41.5802546,82.5091099 C18.6161148,82.5091099 0,64.0387883 0,41.2544934" id="Fill-1-Copy" fill="#EB3434" sketch:type="MSShapeGroup"></path>
                        <g id="Group-5">
                            <mask id="mask-2" sketch:name="Clip 3" fill="white">
                                <use xlink:href="#path-1"></use>
                            </mask>
                            <g id="Clip-3"></g>
                            <path d="M63.9124688,65.836113 L70.7262694,59.0756751 C74.4567647,55.3745185 74.4567647,49.3736679 70.7262694,45.6723881 C66.9958982,41.9712315 60.9476807,41.9712315 57.2171854,45.6723881 L45.8823973,56.9184072 C44.4016875,58.3875207 38.2202723,64.8419881 31.5427898,59.0756751 C27.8124186,55.3745185 27.9502955,49.1938985 31.6805426,45.4926187 L47.8662509,29.4337929 C51.5967462,25.7325132 51.5967462,19.7316626 47.8662509,16.030506 C44.1358797,12.3292263 38.087538,12.3292263 34.3571668,16.030506 L15.7785812,34.4634812 C15.1077537,35.1290512 13.7660986,36.460191 13.7660986,36.460191 C10.0614164,38.866146 5.04237375,38.4552621 1.78756003,35.2259386 C-1.94293528,31.5246589 -2.61171902,25.0209465 1.11865219,21.3196667 L-44.4551932,67.7031291 L-30.9461091,81.106416 L-11.7423731,62.0530751 L1.06925973,74.7643729 L-15.1468534,90.2708388 L-1.19075524,104.956276 L11.6464425,92.219613 L24.3854759,104.85888 L17.5539288,111.603065 L31.3052593,125.21912 L77.5478884,79.3385193 C73.8175172,83.039799 67.7692996,83.039799 64.0388043,79.3385193 C60.3084331,75.6373627 60.1820976,69.5373927 63.9124688,65.836113 Z" id="Fill-2" fill="#F9D026" sketch:type="MSShapeGroup" mask="url(#mask-2)"></path>
                            <path d="M59.0449543,29.3773995 C59.0449543,24.6708886 62.8904918,20.8555908 67.6341529,20.8555908 C72.377814,20.8555908 76.2232275,24.6708886 76.2232275,29.3773995 C76.2232275,34.0839103 72.377814,37.8992082 67.6341529,37.8992082 C62.8904918,37.8992082 59.0449543,34.0839103 59.0449543,29.3773995" id="Fill-4" fill="#F9D026" sketch:type="MSShapeGroup" mask="url(#mask-2)"></path>
                        </g>
                    </g>
                </g>
            </g>
        </g>
    </g>
</svg>